<mxfile host="app.diagrams.net" agent="Mozilla/5.0 (Macintosh; Intel Mac OS X 10_15_7) AppleWebKit/537.36 (KHTML, like Gecko) Chrome/136.0.0.0 Safari/537.36" version="27.0.6">
  <diagram name="Pagina-1" id="HaqWvXewwwLI_E2EldZU">
    <mxGraphModel dx="1183" dy="805" grid="1" gridSize="10" guides="1" tooltips="1" connect="1" arrows="1" fold="1" page="1" pageScale="1" pageWidth="827" pageHeight="1169" math="0" shadow="0">
      <root>
        <mxCell id="0" />
        <mxCell id="1" parent="0" />
        <mxCell id="JDES-9rlce4q_SkyVY0k-1" value="" style="edgeStyle=orthogonalEdgeStyle;rounded=0;orthogonalLoop=1;jettySize=auto;html=1;endArrow=none;startFill=0;" edge="1" parent="1" source="JDES-9rlce4q_SkyVY0k-2" target="JDES-9rlce4q_SkyVY0k-9">
          <mxGeometry relative="1" as="geometry" />
        </mxCell>
        <mxCell id="JDES-9rlce4q_SkyVY0k-188" style="edgeStyle=orthogonalEdgeStyle;rounded=0;orthogonalLoop=1;jettySize=auto;html=1;exitX=0.968;exitY=0.648;exitDx=0;exitDy=0;entryX=0;entryY=0.5;entryDx=0;entryDy=0;exitPerimeter=0;endArrow=none;startFill=0;curved=1;" edge="1" parent="1" source="JDES-9rlce4q_SkyVY0k-2" target="JDES-9rlce4q_SkyVY0k-187">
          <mxGeometry relative="1" as="geometry" />
        </mxCell>
        <mxCell id="JDES-9rlce4q_SkyVY0k-2" value="" style="ellipse;whiteSpace=wrap;html=1;aspect=fixed;fillColor=#F2FF3D;" vertex="1" parent="1">
          <mxGeometry x="483" y="852" width="14" height="14" as="geometry" />
        </mxCell>
        <mxCell id="JDES-9rlce4q_SkyVY0k-3" value="Id_Encounter&lt;div&gt;&amp;nbsp;+&lt;div&gt;Code_Allergy&lt;/div&gt;&lt;div&gt;&lt;span style=&quot;background-color: transparent; color: light-dark(rgb(0, 0, 0), rgb(255, 255, 255));&quot;&gt;+&lt;/span&gt;&lt;/div&gt;&lt;div&gt;Code_Condition&lt;/div&gt;&lt;/div&gt;" style="text;html=1;align=center;verticalAlign=middle;resizable=0;points=[];autosize=1;strokeColor=none;fillColor=none;" vertex="1" parent="1">
          <mxGeometry x="435" y="762" width="110" height="90" as="geometry" />
        </mxCell>
        <mxCell id="JDES-9rlce4q_SkyVY0k-4" style="edgeStyle=orthogonalEdgeStyle;rounded=0;orthogonalLoop=1;jettySize=auto;html=1;exitX=1;exitY=1;exitDx=0;exitDy=0;entryX=0;entryY=0.5;entryDx=0;entryDy=0;curved=1;endArrow=classic;startFill=0;endFill=1;" edge="1" parent="1" source="JDES-9rlce4q_SkyVY0k-9" target="JDES-9rlce4q_SkyVY0k-37">
          <mxGeometry relative="1" as="geometry">
            <Array as="points">
              <mxPoint x="695" y="872" />
              <mxPoint x="753" y="872" />
            </Array>
          </mxGeometry>
        </mxCell>
        <mxCell id="JDES-9rlce4q_SkyVY0k-5" style="edgeStyle=orthogonalEdgeStyle;rounded=0;orthogonalLoop=1;jettySize=auto;html=1;exitX=0.5;exitY=1;exitDx=0;exitDy=0;entryX=0.5;entryY=0;entryDx=0;entryDy=0;endArrow=none;startFill=0;" edge="1" parent="1" source="JDES-9rlce4q_SkyVY0k-9" target="JDES-9rlce4q_SkyVY0k-46">
          <mxGeometry relative="1" as="geometry" />
        </mxCell>
        <mxCell id="JDES-9rlce4q_SkyVY0k-6" style="edgeStyle=orthogonalEdgeStyle;rounded=0;orthogonalLoop=1;jettySize=auto;html=1;exitX=0;exitY=0;exitDx=0;exitDy=0;entryX=0.5;entryY=1;entryDx=0;entryDy=0;endArrow=none;startFill=0;curved=1;" edge="1" parent="1" source="JDES-9rlce4q_SkyVY0k-9" target="JDES-9rlce4q_SkyVY0k-48">
          <mxGeometry relative="1" as="geometry">
            <mxPoint x="663" y="732" as="targetPoint" />
          </mxGeometry>
        </mxCell>
        <mxCell id="JDES-9rlce4q_SkyVY0k-7" style="edgeStyle=orthogonalEdgeStyle;rounded=0;orthogonalLoop=1;jettySize=auto;html=1;exitX=0.5;exitY=0;exitDx=0;exitDy=0;entryX=0.5;entryY=1;entryDx=0;entryDy=0;curved=1;endArrow=none;startFill=0;" edge="1" parent="1" source="JDES-9rlce4q_SkyVY0k-9" target="JDES-9rlce4q_SkyVY0k-29">
          <mxGeometry relative="1" as="geometry" />
        </mxCell>
        <mxCell id="JDES-9rlce4q_SkyVY0k-8" style="edgeStyle=orthogonalEdgeStyle;rounded=0;orthogonalLoop=1;jettySize=auto;html=1;exitX=1;exitY=0.5;exitDx=0;exitDy=0;entryX=0;entryY=0.5;entryDx=0;entryDy=0;curved=1;endArrow=none;startFill=0;" edge="1" parent="1" source="JDES-9rlce4q_SkyVY0k-9" target="JDES-9rlce4q_SkyVY0k-130">
          <mxGeometry relative="1" as="geometry">
            <Array as="points">
              <mxPoint x="823" y="859" />
              <mxPoint x="823" y="644" />
              <mxPoint x="923" y="644" />
            </Array>
          </mxGeometry>
        </mxCell>
        <mxCell id="JDES-9rlce4q_SkyVY0k-9" value="" style="ellipse;whiteSpace=wrap;html=1;aspect=fixed;fillColor=#FFFFFF;" vertex="1" parent="1">
          <mxGeometry x="683" y="852" width="14" height="14" as="geometry" />
        </mxCell>
        <mxCell id="JDES-9rlce4q_SkyVY0k-10" style="edgeStyle=orthogonalEdgeStyle;rounded=0;orthogonalLoop=1;jettySize=auto;html=1;exitX=0.5;exitY=0;exitDx=0;exitDy=0;entryX=1;entryY=1;entryDx=0;entryDy=0;endArrow=none;startFill=0;curved=1;" edge="1" parent="1" source="JDES-9rlce4q_SkyVY0k-11" target="JDES-9rlce4q_SkyVY0k-2">
          <mxGeometry relative="1" as="geometry" />
        </mxCell>
        <mxCell id="JDES-9rlce4q_SkyVY0k-11" value="" style="ellipse;whiteSpace=wrap;html=1;aspect=fixed;fillColor=#FFFFFF;" vertex="1" parent="1">
          <mxGeometry x="503" y="902" width="14" height="14" as="geometry" />
        </mxCell>
        <mxCell id="JDES-9rlce4q_SkyVY0k-12" style="edgeStyle=orthogonalEdgeStyle;rounded=0;orthogonalLoop=1;jettySize=auto;html=1;exitX=0.5;exitY=0;exitDx=0;exitDy=0;entryX=0;entryY=1;entryDx=0;entryDy=0;curved=1;endArrow=none;startFill=0;" edge="1" parent="1" source="JDES-9rlce4q_SkyVY0k-13" target="JDES-9rlce4q_SkyVY0k-2">
          <mxGeometry relative="1" as="geometry" />
        </mxCell>
        <mxCell id="JDES-9rlce4q_SkyVY0k-13" value="" style="ellipse;whiteSpace=wrap;html=1;aspect=fixed;fillColor=#FFFFFF;" vertex="1" parent="1">
          <mxGeometry x="463" y="902" width="14" height="14" as="geometry" />
        </mxCell>
        <mxCell id="JDES-9rlce4q_SkyVY0k-14" value="Start" style="text;html=1;align=center;verticalAlign=middle;resizable=0;points=[];autosize=1;strokeColor=none;fillColor=none;" vertex="1" parent="1">
          <mxGeometry x="438" y="910" width="50" height="30" as="geometry" />
        </mxCell>
        <mxCell id="JDES-9rlce4q_SkyVY0k-15" value="Stop" style="text;html=1;align=center;verticalAlign=middle;resizable=0;points=[];autosize=1;strokeColor=none;fillColor=none;" vertex="1" parent="1">
          <mxGeometry x="497" y="910" width="50" height="30" as="geometry" />
        </mxCell>
        <mxCell id="JDES-9rlce4q_SkyVY0k-16" style="edgeStyle=orthogonalEdgeStyle;rounded=0;orthogonalLoop=1;jettySize=auto;html=1;exitX=1;exitY=0.5;exitDx=0;exitDy=0;entryX=0;entryY=0.5;entryDx=0;entryDy=0;endArrow=none;startFill=0;" edge="1" parent="1" source="JDES-9rlce4q_SkyVY0k-17" target="JDES-9rlce4q_SkyVY0k-2">
          <mxGeometry relative="1" as="geometry" />
        </mxCell>
        <mxCell id="JDES-9rlce4q_SkyVY0k-17" value="" style="ellipse;whiteSpace=wrap;html=1;aspect=fixed;fillColor=#FFFFFF;" vertex="1" parent="1">
          <mxGeometry x="393" y="852" width="14" height="14" as="geometry" />
        </mxCell>
        <mxCell id="JDES-9rlce4q_SkyVY0k-200" style="edgeStyle=orthogonalEdgeStyle;rounded=0;orthogonalLoop=1;jettySize=auto;html=1;exitX=0.5;exitY=1;exitDx=0;exitDy=0;entryX=0.5;entryY=0;entryDx=0;entryDy=0;endArrow=none;startFill=0;" edge="1" parent="1" source="JDES-9rlce4q_SkyVY0k-18" target="JDES-9rlce4q_SkyVY0k-198">
          <mxGeometry relative="1" as="geometry" />
        </mxCell>
        <mxCell id="JDES-9rlce4q_SkyVY0k-203" style="edgeStyle=orthogonalEdgeStyle;rounded=0;orthogonalLoop=1;jettySize=auto;html=1;exitX=0;exitY=0;exitDx=0;exitDy=0;entryX=1;entryY=0.5;entryDx=0;entryDy=0;curved=1;endArrow=none;startFill=0;" edge="1" parent="1" source="JDES-9rlce4q_SkyVY0k-18" target="JDES-9rlce4q_SkyVY0k-191">
          <mxGeometry relative="1" as="geometry">
            <Array as="points">
              <mxPoint x="485" y="970" />
              <mxPoint x="460" y="970" />
            </Array>
          </mxGeometry>
        </mxCell>
        <mxCell id="JDES-9rlce4q_SkyVY0k-18" value="" style="ellipse;whiteSpace=wrap;html=1;aspect=fixed;fillColor=#FFFFFF;" vertex="1" parent="1">
          <mxGeometry x="483" y="982" width="14" height="14" as="geometry" />
        </mxCell>
        <mxCell id="JDES-9rlce4q_SkyVY0k-19" style="edgeStyle=orthogonalEdgeStyle;rounded=0;orthogonalLoop=1;jettySize=auto;html=1;exitX=0.5;exitY=1;exitDx=0;exitDy=0;entryX=0.496;entryY=-0.153;entryDx=0;entryDy=0;entryPerimeter=0;endArrow=none;startFill=0;" edge="1" parent="1" source="JDES-9rlce4q_SkyVY0k-2">
          <mxGeometry relative="1" as="geometry">
            <mxPoint x="489.91" y="868.0699999999998" as="sourcePoint" />
            <mxPoint x="489.8540000000001" y="981.928" as="targetPoint" />
          </mxGeometry>
        </mxCell>
        <mxCell id="JDES-9rlce4q_SkyVY0k-20" value="Code_Allergy" style="text;html=1;align=center;verticalAlign=middle;resizable=0;points=[];autosize=1;strokeColor=none;fillColor=none;" vertex="1" parent="1">
          <mxGeometry x="502" y="974" width="100" height="30" as="geometry" />
        </mxCell>
        <mxCell id="JDES-9rlce4q_SkyVY0k-21" style="edgeStyle=orthogonalEdgeStyle;rounded=0;orthogonalLoop=1;jettySize=auto;html=1;exitX=0;exitY=0.5;exitDx=0;exitDy=0;entryX=1;entryY=1;entryDx=0;entryDy=0;endArrow=none;startFill=0;curved=1;" edge="1" parent="1" source="JDES-9rlce4q_SkyVY0k-22" target="JDES-9rlce4q_SkyVY0k-18">
          <mxGeometry relative="1" as="geometry" />
        </mxCell>
        <mxCell id="JDES-9rlce4q_SkyVY0k-22" value="" style="ellipse;whiteSpace=wrap;html=1;aspect=fixed;fillColor=#FFFFFF;" vertex="1" parent="1">
          <mxGeometry x="550" y="1022" width="14" height="14" as="geometry" />
        </mxCell>
        <mxCell id="JDES-9rlce4q_SkyVY0k-23" value="Description" style="text;html=1;align=center;verticalAlign=middle;resizable=0;points=[];autosize=1;strokeColor=none;fillColor=none;" vertex="1" parent="1">
          <mxGeometry x="564" y="1014" width="80" height="30" as="geometry" />
        </mxCell>
        <mxCell id="JDES-9rlce4q_SkyVY0k-24" value="Code_Condition" style="text;html=1;align=center;verticalAlign=middle;resizable=0;points=[];autosize=1;strokeColor=none;fillColor=none;" vertex="1" parent="1">
          <mxGeometry x="345" y="866" width="110" height="30" as="geometry" />
        </mxCell>
        <mxCell id="JDES-9rlce4q_SkyVY0k-25" style="edgeStyle=orthogonalEdgeStyle;rounded=0;orthogonalLoop=1;jettySize=auto;html=1;entryX=0;entryY=0.5;entryDx=0;entryDy=0;endArrow=none;startFill=0;" edge="1" parent="1" source="JDES-9rlce4q_SkyVY0k-26" target="JDES-9rlce4q_SkyVY0k-17">
          <mxGeometry relative="1" as="geometry" />
        </mxCell>
        <mxCell id="JDES-9rlce4q_SkyVY0k-26" value="" style="ellipse;whiteSpace=wrap;html=1;aspect=fixed;fillColor=#FFFFFF;" vertex="1" parent="1">
          <mxGeometry x="323" y="852" width="14" height="14" as="geometry" />
        </mxCell>
        <mxCell id="JDES-9rlce4q_SkyVY0k-27" value="Description" style="text;html=1;align=center;verticalAlign=middle;resizable=0;points=[];autosize=1;strokeColor=none;fillColor=none;" vertex="1" parent="1">
          <mxGeometry x="290" y="822" width="80" height="30" as="geometry" />
        </mxCell>
        <mxCell id="JDES-9rlce4q_SkyVY0k-28" value="Id_Encounter" style="text;html=1;align=center;verticalAlign=middle;resizable=0;points=[];autosize=1;strokeColor=none;fillColor=none;" vertex="1" parent="1">
          <mxGeometry x="593" y="866" width="90" height="30" as="geometry" />
        </mxCell>
        <mxCell id="JDES-9rlce4q_SkyVY0k-29" value="" style="ellipse;whiteSpace=wrap;html=1;aspect=fixed;fillColor=#FFFFFF;" vertex="1" parent="1">
          <mxGeometry x="751" y="748" width="14" height="14" as="geometry" />
        </mxCell>
        <mxCell id="JDES-9rlce4q_SkyVY0k-30" style="edgeStyle=orthogonalEdgeStyle;rounded=0;orthogonalLoop=1;jettySize=auto;html=1;exitX=1;exitY=0.5;exitDx=0;exitDy=0;entryX=0;entryY=0.5;entryDx=0;entryDy=0;endArrow=classic;startFill=0;endFill=1;" edge="1" parent="1" source="JDES-9rlce4q_SkyVY0k-37" target="JDES-9rlce4q_SkyVY0k-61">
          <mxGeometry relative="1" as="geometry" />
        </mxCell>
        <mxCell id="JDES-9rlce4q_SkyVY0k-31" style="edgeStyle=orthogonalEdgeStyle;rounded=0;orthogonalLoop=1;jettySize=auto;html=1;exitX=0.5;exitY=1;exitDx=0;exitDy=0;entryX=0.5;entryY=0;entryDx=0;entryDy=0;curved=1;endArrow=none;startFill=0;" edge="1" parent="1" source="JDES-9rlce4q_SkyVY0k-37" target="JDES-9rlce4q_SkyVY0k-64">
          <mxGeometry relative="1" as="geometry" />
        </mxCell>
        <mxCell id="JDES-9rlce4q_SkyVY0k-32" style="edgeStyle=orthogonalEdgeStyle;rounded=0;orthogonalLoop=1;jettySize=auto;html=1;exitX=0;exitY=0;exitDx=0;exitDy=0;entryX=1;entryY=1;entryDx=0;entryDy=0;strokeColor=default;curved=1;endArrow=none;startFill=0;" edge="1" parent="1" source="JDES-9rlce4q_SkyVY0k-37" target="JDES-9rlce4q_SkyVY0k-62">
          <mxGeometry relative="1" as="geometry" />
        </mxCell>
        <mxCell id="JDES-9rlce4q_SkyVY0k-33" style="edgeStyle=orthogonalEdgeStyle;rounded=0;orthogonalLoop=1;jettySize=auto;html=1;exitX=0.5;exitY=0;exitDx=0;exitDy=0;entryX=0.5;entryY=1;entryDx=0;entryDy=0;curved=1;endArrow=none;startFill=0;" edge="1" parent="1" source="JDES-9rlce4q_SkyVY0k-37" target="JDES-9rlce4q_SkyVY0k-72">
          <mxGeometry relative="1" as="geometry" />
        </mxCell>
        <mxCell id="JDES-9rlce4q_SkyVY0k-34" style="edgeStyle=orthogonalEdgeStyle;rounded=0;orthogonalLoop=1;jettySize=auto;html=1;exitX=1;exitY=0;exitDx=0;exitDy=0;entryX=0.5;entryY=1;entryDx=0;entryDy=0;curved=1;endArrow=none;startFill=0;" edge="1" parent="1" source="JDES-9rlce4q_SkyVY0k-37" target="JDES-9rlce4q_SkyVY0k-38">
          <mxGeometry relative="1" as="geometry" />
        </mxCell>
        <mxCell id="JDES-9rlce4q_SkyVY0k-35" style="edgeStyle=orthogonalEdgeStyle;rounded=0;orthogonalLoop=1;jettySize=auto;html=1;exitX=0.933;exitY=0.302;exitDx=0;exitDy=0;entryX=0.5;entryY=1;entryDx=0;entryDy=0;curved=1;endArrow=none;startFill=0;exitPerimeter=0;" edge="1" parent="1" source="JDES-9rlce4q_SkyVY0k-37" target="JDES-9rlce4q_SkyVY0k-75">
          <mxGeometry relative="1" as="geometry" />
        </mxCell>
        <mxCell id="JDES-9rlce4q_SkyVY0k-36" style="edgeStyle=orthogonalEdgeStyle;rounded=0;orthogonalLoop=1;jettySize=auto;html=1;exitX=1.014;exitY=0.588;exitDx=0;exitDy=0;entryX=0;entryY=0.5;entryDx=0;entryDy=0;curved=1;endArrow=none;startFill=0;exitPerimeter=0;" edge="1" parent="1" source="JDES-9rlce4q_SkyVY0k-37" target="JDES-9rlce4q_SkyVY0k-76">
          <mxGeometry relative="1" as="geometry" />
        </mxCell>
        <mxCell id="JDES-9rlce4q_SkyVY0k-37" value="" style="ellipse;whiteSpace=wrap;html=1;aspect=fixed;fillColor=#FFFFFF;" vertex="1" parent="1">
          <mxGeometry x="856" y="866" width="14" height="14" as="geometry" />
        </mxCell>
        <mxCell id="JDES-9rlce4q_SkyVY0k-38" value="" style="ellipse;whiteSpace=wrap;html=1;aspect=fixed;fillColor=#FFFFFF;" vertex="1" parent="1">
          <mxGeometry x="893" y="830" width="14" height="14" as="geometry" />
        </mxCell>
        <mxCell id="JDES-9rlce4q_SkyVY0k-39" style="edgeStyle=orthogonalEdgeStyle;rounded=0;orthogonalLoop=1;jettySize=auto;html=1;exitX=0;exitY=0;exitDx=0;exitDy=0;entryX=0.5;entryY=0;entryDx=0;entryDy=0;curved=1;endArrow=none;startFill=0;" edge="1" parent="1" source="JDES-9rlce4q_SkyVY0k-46" target="JDES-9rlce4q_SkyVY0k-99">
          <mxGeometry relative="1" as="geometry" />
        </mxCell>
        <mxCell id="JDES-9rlce4q_SkyVY0k-40" style="edgeStyle=orthogonalEdgeStyle;rounded=0;orthogonalLoop=1;jettySize=auto;html=1;exitX=0;exitY=0.5;exitDx=0;exitDy=0;entryX=0.5;entryY=0;entryDx=0;entryDy=0;curved=1;endArrow=none;startFill=0;" edge="1" parent="1" source="JDES-9rlce4q_SkyVY0k-46" target="JDES-9rlce4q_SkyVY0k-97">
          <mxGeometry relative="1" as="geometry" />
        </mxCell>
        <mxCell id="JDES-9rlce4q_SkyVY0k-41" style="edgeStyle=orthogonalEdgeStyle;rounded=0;orthogonalLoop=1;jettySize=auto;html=1;exitX=0;exitY=1;exitDx=0;exitDy=0;entryX=0.5;entryY=0;entryDx=0;entryDy=0;curved=1;endArrow=none;startFill=0;" edge="1" parent="1" source="JDES-9rlce4q_SkyVY0k-46" target="JDES-9rlce4q_SkyVY0k-98">
          <mxGeometry relative="1" as="geometry" />
        </mxCell>
        <mxCell id="JDES-9rlce4q_SkyVY0k-42" style="edgeStyle=orthogonalEdgeStyle;rounded=0;orthogonalLoop=1;jettySize=auto;html=1;exitX=1;exitY=1;exitDx=0;exitDy=0;curved=1;endArrow=none;startFill=0;" edge="1" parent="1" source="JDES-9rlce4q_SkyVY0k-46" target="JDES-9rlce4q_SkyVY0k-105">
          <mxGeometry relative="1" as="geometry" />
        </mxCell>
        <mxCell id="JDES-9rlce4q_SkyVY0k-43" style="edgeStyle=orthogonalEdgeStyle;rounded=0;orthogonalLoop=1;jettySize=auto;html=1;exitX=0.971;exitY=0.342;exitDx=0;exitDy=0;entryX=0;entryY=0.5;entryDx=0;entryDy=0;curved=1;exitPerimeter=0;endArrow=none;startFill=0;" edge="1" parent="1" source="JDES-9rlce4q_SkyVY0k-46" target="JDES-9rlce4q_SkyVY0k-112">
          <mxGeometry relative="1" as="geometry" />
        </mxCell>
        <mxCell id="JDES-9rlce4q_SkyVY0k-44" style="edgeStyle=orthogonalEdgeStyle;rounded=0;orthogonalLoop=1;jettySize=auto;html=1;exitX=1;exitY=0;exitDx=0;exitDy=0;entryX=0;entryY=1;entryDx=0;entryDy=0;curved=1;" edge="1" parent="1" source="JDES-9rlce4q_SkyVY0k-46" target="JDES-9rlce4q_SkyVY0k-61">
          <mxGeometry relative="1" as="geometry">
            <mxPoint x="1143" y="952" as="targetPoint" />
            <Array as="points">
              <mxPoint x="1013" y="1114" />
              <mxPoint x="1013" y="878" />
            </Array>
          </mxGeometry>
        </mxCell>
        <mxCell id="JDES-9rlce4q_SkyVY0k-45" style="edgeStyle=orthogonalEdgeStyle;rounded=0;orthogonalLoop=1;jettySize=auto;html=1;entryX=0;entryY=1;entryDx=0;entryDy=0;curved=1;exitX=0.675;exitY=0.002;exitDx=0;exitDy=0;exitPerimeter=0;" edge="1" parent="1" source="JDES-9rlce4q_SkyVY0k-46" target="JDES-9rlce4q_SkyVY0k-37">
          <mxGeometry relative="1" as="geometry">
            <Array as="points">
              <mxPoint x="692" y="1102" />
              <mxPoint x="763" y="1102" />
              <mxPoint x="763" y="878" />
            </Array>
          </mxGeometry>
        </mxCell>
        <mxCell id="JDES-9rlce4q_SkyVY0k-46" value="" style="ellipse;whiteSpace=wrap;html=1;aspect=fixed;fillColor=#FFFFFF;" vertex="1" parent="1">
          <mxGeometry x="683" y="1112" width="14" height="14" as="geometry" />
        </mxCell>
        <mxCell id="JDES-9rlce4q_SkyVY0k-47" style="edgeStyle=orthogonalEdgeStyle;rounded=0;orthogonalLoop=1;jettySize=auto;html=1;exitX=1;exitY=0;exitDx=0;exitDy=0;curved=1;endArrow=none;startFill=0;" edge="1" parent="1" source="JDES-9rlce4q_SkyVY0k-48" target="JDES-9rlce4q_SkyVY0k-53">
          <mxGeometry relative="1" as="geometry" />
        </mxCell>
        <mxCell id="JDES-9rlce4q_SkyVY0k-48" value="" style="ellipse;whiteSpace=wrap;html=1;aspect=fixed;fillColor=#FFFFFF;" vertex="1" parent="1">
          <mxGeometry x="653" y="636" width="14" height="14" as="geometry" />
        </mxCell>
        <mxCell id="JDES-9rlce4q_SkyVY0k-49" value="Code_Type_Encounter&lt;div&gt;&lt;br&gt;&lt;/div&gt;" style="text;html=1;align=center;verticalAlign=middle;resizable=0;points=[];autosize=1;strokeColor=none;fillColor=none;" vertex="1" parent="1">
          <mxGeometry x="497" y="623" width="150" height="40" as="geometry" />
        </mxCell>
        <mxCell id="JDES-9rlce4q_SkyVY0k-50" style="edgeStyle=orthogonalEdgeStyle;rounded=0;orthogonalLoop=1;jettySize=auto;html=1;exitX=0.5;exitY=1;exitDx=0;exitDy=0;entryX=0;entryY=0;entryDx=0;entryDy=0;curved=1;endArrow=none;startFill=0;" edge="1" parent="1" source="JDES-9rlce4q_SkyVY0k-51" target="JDES-9rlce4q_SkyVY0k-48">
          <mxGeometry relative="1" as="geometry" />
        </mxCell>
        <mxCell id="JDES-9rlce4q_SkyVY0k-51" value="" style="ellipse;whiteSpace=wrap;html=1;aspect=fixed;fillColor=#FFFFFF;" vertex="1" parent="1">
          <mxGeometry x="597" y="556" width="14" height="14" as="geometry" />
        </mxCell>
        <mxCell id="JDES-9rlce4q_SkyVY0k-52" value="Description" style="text;html=1;align=center;verticalAlign=middle;resizable=0;points=[];autosize=1;strokeColor=none;fillColor=none;" vertex="1" parent="1">
          <mxGeometry x="517" y="556" width="80" height="30" as="geometry" />
        </mxCell>
        <mxCell id="JDES-9rlce4q_SkyVY0k-53" value="" style="ellipse;whiteSpace=wrap;html=1;aspect=fixed;fillColor=#FFFFFF;" vertex="1" parent="1">
          <mxGeometry x="713" y="556" width="14" height="14" as="geometry" />
        </mxCell>
        <mxCell id="JDES-9rlce4q_SkyVY0k-54" value="Base_Cost" style="text;html=1;align=center;verticalAlign=middle;resizable=0;points=[];autosize=1;strokeColor=none;fillColor=none;" vertex="1" parent="1">
          <mxGeometry x="723" y="536" width="80" height="30" as="geometry" />
        </mxCell>
        <mxCell id="JDES-9rlce4q_SkyVY0k-55" value="Id_Class" style="text;html=1;align=center;verticalAlign=middle;resizable=0;points=[];autosize=1;strokeColor=none;fillColor=none;" vertex="1" parent="1">
          <mxGeometry x="683" y="740" width="70" height="30" as="geometry" />
        </mxCell>
        <mxCell id="JDES-9rlce4q_SkyVY0k-56" style="edgeStyle=orthogonalEdgeStyle;rounded=0;orthogonalLoop=1;jettySize=auto;html=1;exitX=0.5;exitY=1;exitDx=0;exitDy=0;entryX=0.5;entryY=0;entryDx=0;entryDy=0;endArrow=none;startFill=0;" edge="1" parent="1" source="JDES-9rlce4q_SkyVY0k-57" target="JDES-9rlce4q_SkyVY0k-29">
          <mxGeometry relative="1" as="geometry" />
        </mxCell>
        <mxCell id="JDES-9rlce4q_SkyVY0k-57" value="" style="ellipse;whiteSpace=wrap;html=1;aspect=fixed;fillColor=#FFFFFF;" vertex="1" parent="1">
          <mxGeometry x="751" y="672" width="14" height="14" as="geometry" />
        </mxCell>
        <mxCell id="JDES-9rlce4q_SkyVY0k-58" value="Name" style="text;html=1;align=center;verticalAlign=middle;resizable=0;points=[];autosize=1;strokeColor=none;fillColor=none;" vertex="1" parent="1">
          <mxGeometry x="691" y="642" width="60" height="30" as="geometry" />
        </mxCell>
        <mxCell id="JDES-9rlce4q_SkyVY0k-59" value="Id_Organization" style="text;html=1;align=center;verticalAlign=middle;resizable=0;points=[];autosize=1;strokeColor=none;fillColor=none;" vertex="1" parent="1">
          <mxGeometry x="748" y="847" width="110" height="30" as="geometry" />
        </mxCell>
        <mxCell id="JDES-9rlce4q_SkyVY0k-60" style="edgeStyle=orthogonalEdgeStyle;rounded=0;orthogonalLoop=1;jettySize=auto;html=1;exitX=1;exitY=0.5;exitDx=0;exitDy=0;entryX=0;entryY=0.5;entryDx=0;entryDy=0;endArrow=none;startFill=0;" edge="1" parent="1" source="JDES-9rlce4q_SkyVY0k-61" target="JDES-9rlce4q_SkyVY0k-85">
          <mxGeometry relative="1" as="geometry" />
        </mxCell>
        <mxCell id="JDES-9rlce4q_SkyVY0k-61" value="" style="ellipse;whiteSpace=wrap;html=1;aspect=fixed;fillColor=#FFFFFF;" vertex="1" parent="1">
          <mxGeometry x="1033" y="866" width="14" height="14" as="geometry" />
        </mxCell>
        <mxCell id="JDES-9rlce4q_SkyVY0k-62" value="" style="ellipse;whiteSpace=wrap;html=1;aspect=fixed;fillColor=#FFFFFF;" vertex="1" parent="1">
          <mxGeometry x="833" y="838" width="14" height="14" as="geometry" />
        </mxCell>
        <mxCell id="JDES-9rlce4q_SkyVY0k-63" value="" style="ellipse;whiteSpace=wrap;html=1;aspect=fixed;fillColor=#FFFFFF;" vertex="1" parent="1">
          <mxGeometry x="870" y="942" width="14" height="14" as="geometry" />
        </mxCell>
        <mxCell id="JDES-9rlce4q_SkyVY0k-64" value="" style="ellipse;whiteSpace=wrap;html=1;aspect=fixed;fillColor=#FFFFFF;" vertex="1" parent="1">
          <mxGeometry x="833" y="942" width="14" height="14" as="geometry" />
        </mxCell>
        <mxCell id="JDES-9rlce4q_SkyVY0k-65" value="" style="ellipse;whiteSpace=wrap;html=1;aspect=fixed;fillColor=#FFFFFF;" vertex="1" parent="1">
          <mxGeometry x="933" y="932" width="14" height="14" as="geometry" />
        </mxCell>
        <mxCell id="JDES-9rlce4q_SkyVY0k-66" value="Name" style="text;html=1;align=center;verticalAlign=middle;resizable=0;points=[];autosize=1;strokeColor=none;fillColor=none;" vertex="1" parent="1">
          <mxGeometry x="783" y="932" width="60" height="30" as="geometry" />
        </mxCell>
        <mxCell id="JDES-9rlce4q_SkyVY0k-67" value="Address" style="text;strokeColor=none;align=center;fillColor=none;html=1;verticalAlign=middle;whiteSpace=wrap;rounded=0;" vertex="1" parent="1">
          <mxGeometry x="847" y="946" width="60" height="30" as="geometry" />
        </mxCell>
        <mxCell id="JDES-9rlce4q_SkyVY0k-68" style="edgeStyle=orthogonalEdgeStyle;rounded=0;orthogonalLoop=1;jettySize=auto;html=1;exitX=1;exitY=1;exitDx=0;exitDy=0;entryX=0.5;entryY=0;entryDx=0;entryDy=0;curved=1;endArrow=none;startFill=0;" edge="1" parent="1" source="JDES-9rlce4q_SkyVY0k-37" target="JDES-9rlce4q_SkyVY0k-63">
          <mxGeometry relative="1" as="geometry">
            <mxPoint x="900" y="880" as="sourcePoint" />
            <mxPoint x="877" y="942" as="targetPoint" />
            <Array as="points">
              <mxPoint x="868" y="880" />
              <mxPoint x="878" y="880" />
              <mxPoint x="878" y="942" />
            </Array>
          </mxGeometry>
        </mxCell>
        <mxCell id="JDES-9rlce4q_SkyVY0k-69" style="edgeStyle=orthogonalEdgeStyle;rounded=0;orthogonalLoop=1;jettySize=auto;html=1;exitX=0.934;exitY=0.725;exitDx=0;exitDy=0;curved=1;endArrow=none;startFill=0;exitPerimeter=0;" edge="1" parent="1" source="JDES-9rlce4q_SkyVY0k-37" target="JDES-9rlce4q_SkyVY0k-65">
          <mxGeometry relative="1" as="geometry">
            <mxPoint x="878" y="888" as="sourcePoint" />
            <mxPoint x="887" y="952" as="targetPoint" />
            <Array as="points">
              <mxPoint x="883" y="876" />
              <mxPoint x="883" y="882" />
              <mxPoint x="893" y="882" />
              <mxPoint x="893" y="939" />
            </Array>
          </mxGeometry>
        </mxCell>
        <mxCell id="JDES-9rlce4q_SkyVY0k-70" value="Zip_Code" style="text;html=1;align=center;verticalAlign=middle;resizable=0;points=[];autosize=1;strokeColor=none;fillColor=none;" vertex="1" parent="1">
          <mxGeometry x="893" y="940" width="80" height="30" as="geometry" />
        </mxCell>
        <mxCell id="JDES-9rlce4q_SkyVY0k-71" value="Lat" style="text;html=1;align=center;verticalAlign=middle;resizable=0;points=[];autosize=1;strokeColor=none;fillColor=none;" vertex="1" parent="1">
          <mxGeometry x="830" y="817" width="40" height="30" as="geometry" />
        </mxCell>
        <mxCell id="JDES-9rlce4q_SkyVY0k-72" value="" style="ellipse;whiteSpace=wrap;html=1;aspect=fixed;fillColor=#FFFFFF;" vertex="1" parent="1">
          <mxGeometry x="869" y="830" width="14" height="14" as="geometry" />
        </mxCell>
        <mxCell id="JDES-9rlce4q_SkyVY0k-73" value="Lon" style="text;html=1;align=center;verticalAlign=middle;resizable=0;points=[];autosize=1;strokeColor=none;fillColor=none;" vertex="1" parent="1">
          <mxGeometry x="856" y="808" width="40" height="30" as="geometry" />
        </mxCell>
        <mxCell id="JDES-9rlce4q_SkyVY0k-74" value="Phone" style="text;html=1;align=center;verticalAlign=middle;resizable=0;points=[];autosize=1;strokeColor=none;fillColor=none;" vertex="1" parent="1">
          <mxGeometry x="887" y="808" width="60" height="30" as="geometry" />
        </mxCell>
        <mxCell id="JDES-9rlce4q_SkyVY0k-75" value="" style="ellipse;whiteSpace=wrap;html=1;aspect=fixed;fillColor=#FFFFFF;" vertex="1" parent="1">
          <mxGeometry x="933" y="832" width="14" height="14" as="geometry" />
        </mxCell>
        <mxCell id="JDES-9rlce4q_SkyVY0k-76" value="" style="ellipse;whiteSpace=wrap;html=1;aspect=fixed;fillColor=#FFFFFF;" vertex="1" parent="1">
          <mxGeometry x="933" y="888" width="14" height="14" as="geometry" />
        </mxCell>
        <mxCell id="JDES-9rlce4q_SkyVY0k-77" value="Revenue" style="text;html=1;align=center;verticalAlign=middle;resizable=0;points=[];autosize=1;strokeColor=none;fillColor=none;" vertex="1" parent="1">
          <mxGeometry x="933" y="814" width="70" height="30" as="geometry" />
        </mxCell>
        <mxCell id="JDES-9rlce4q_SkyVY0k-78" value="Utilization" style="text;html=1;align=center;verticalAlign=middle;resizable=0;points=[];autosize=1;strokeColor=none;fillColor=none;" vertex="1" parent="1">
          <mxGeometry x="903" y="894" width="80" height="30" as="geometry" />
        </mxCell>
        <mxCell id="JDES-9rlce4q_SkyVY0k-79" value="Id_City" style="text;html=1;align=center;verticalAlign=middle;resizable=0;points=[];autosize=1;strokeColor=none;fillColor=none;" vertex="1" parent="1">
          <mxGeometry x="1033" y="872" width="60" height="30" as="geometry" />
        </mxCell>
        <mxCell id="JDES-9rlce4q_SkyVY0k-80" style="edgeStyle=orthogonalEdgeStyle;rounded=0;orthogonalLoop=1;jettySize=auto;html=1;entryX=0.5;entryY=1;entryDx=0;entryDy=0;endArrow=none;startFill=0;" edge="1" parent="1" source="JDES-9rlce4q_SkyVY0k-81" target="JDES-9rlce4q_SkyVY0k-61">
          <mxGeometry relative="1" as="geometry" />
        </mxCell>
        <mxCell id="JDES-9rlce4q_SkyVY0k-81" value="" style="ellipse;whiteSpace=wrap;html=1;aspect=fixed;fillColor=#FFFFFF;" vertex="1" parent="1">
          <mxGeometry x="1033" y="902" width="14" height="14" as="geometry" />
        </mxCell>
        <mxCell id="JDES-9rlce4q_SkyVY0k-82" value="Name" style="text;html=1;align=center;verticalAlign=middle;resizable=0;points=[];autosize=1;strokeColor=none;fillColor=none;" vertex="1" parent="1">
          <mxGeometry x="1010" y="910" width="60" height="30" as="geometry" />
        </mxCell>
        <mxCell id="JDES-9rlce4q_SkyVY0k-83" style="edgeStyle=orthogonalEdgeStyle;rounded=0;orthogonalLoop=1;jettySize=auto;html=1;exitX=0.5;exitY=1;exitDx=0;exitDy=0;entryX=0.5;entryY=0;entryDx=0;entryDy=0;endArrow=none;startFill=0;" edge="1" parent="1" source="JDES-9rlce4q_SkyVY0k-85" target="JDES-9rlce4q_SkyVY0k-87">
          <mxGeometry relative="1" as="geometry" />
        </mxCell>
        <mxCell id="JDES-9rlce4q_SkyVY0k-84" style="edgeStyle=orthogonalEdgeStyle;rounded=0;orthogonalLoop=1;jettySize=auto;html=1;exitX=1;exitY=0.5;exitDx=0;exitDy=0;entryX=0;entryY=0.5;entryDx=0;entryDy=0;endArrow=none;startFill=0;" edge="1" parent="1" source="JDES-9rlce4q_SkyVY0k-85" target="JDES-9rlce4q_SkyVY0k-90">
          <mxGeometry relative="1" as="geometry" />
        </mxCell>
        <mxCell id="JDES-9rlce4q_SkyVY0k-85" value="" style="ellipse;whiteSpace=wrap;html=1;aspect=fixed;fillColor=#FFFFFF;" vertex="1" parent="1">
          <mxGeometry x="1113" y="866" width="14" height="14" as="geometry" />
        </mxCell>
        <mxCell id="JDES-9rlce4q_SkyVY0k-86" value="Id_County" style="text;html=1;align=center;verticalAlign=middle;resizable=0;points=[];autosize=1;strokeColor=none;fillColor=none;" vertex="1" parent="1">
          <mxGeometry x="1080" y="838" width="80" height="30" as="geometry" />
        </mxCell>
        <mxCell id="JDES-9rlce4q_SkyVY0k-87" value="" style="ellipse;whiteSpace=wrap;html=1;aspect=fixed;fillColor=#FFFFFF;" vertex="1" parent="1">
          <mxGeometry x="1113" y="902" width="14" height="14" as="geometry" />
        </mxCell>
        <mxCell id="JDES-9rlce4q_SkyVY0k-88" value="Name" style="text;html=1;align=center;verticalAlign=middle;resizable=0;points=[];autosize=1;strokeColor=none;fillColor=none;" vertex="1" parent="1">
          <mxGeometry x="1090" y="912" width="60" height="30" as="geometry" />
        </mxCell>
        <mxCell id="JDES-9rlce4q_SkyVY0k-89" style="edgeStyle=orthogonalEdgeStyle;rounded=0;orthogonalLoop=1;jettySize=auto;html=1;exitX=0.5;exitY=1;exitDx=0;exitDy=0;entryX=0.5;entryY=0;entryDx=0;entryDy=0;endArrow=none;startFill=0;" edge="1" parent="1" source="JDES-9rlce4q_SkyVY0k-90" target="JDES-9rlce4q_SkyVY0k-92">
          <mxGeometry relative="1" as="geometry" />
        </mxCell>
        <mxCell id="JDES-9rlce4q_SkyVY0k-90" value="" style="ellipse;whiteSpace=wrap;html=1;aspect=fixed;fillColor=#FFFFFF;" vertex="1" parent="1">
          <mxGeometry x="1183" y="866" width="14" height="14" as="geometry" />
        </mxCell>
        <mxCell id="JDES-9rlce4q_SkyVY0k-91" value="Id_State" style="text;html=1;align=center;verticalAlign=middle;resizable=0;points=[];autosize=1;strokeColor=none;fillColor=none;" vertex="1" parent="1">
          <mxGeometry x="1155" y="838" width="70" height="30" as="geometry" />
        </mxCell>
        <mxCell id="JDES-9rlce4q_SkyVY0k-92" value="" style="ellipse;whiteSpace=wrap;html=1;aspect=fixed;fillColor=#FFFFFF;" vertex="1" parent="1">
          <mxGeometry x="1183" y="902" width="14" height="14" as="geometry" />
        </mxCell>
        <mxCell id="JDES-9rlce4q_SkyVY0k-93" value="Name" style="text;html=1;align=center;verticalAlign=middle;resizable=0;points=[];autosize=1;strokeColor=none;fillColor=none;" vertex="1" parent="1">
          <mxGeometry x="1160" y="910" width="60" height="30" as="geometry" />
        </mxCell>
        <mxCell id="JDES-9rlce4q_SkyVY0k-94" value="Id_Provider" style="text;html=1;align=center;verticalAlign=middle;resizable=0;points=[];autosize=1;strokeColor=none;fillColor=none;" vertex="1" parent="1">
          <mxGeometry x="607" y="1082" width="80" height="30" as="geometry" />
        </mxCell>
        <mxCell id="JDES-9rlce4q_SkyVY0k-95" style="edgeStyle=orthogonalEdgeStyle;rounded=0;orthogonalLoop=1;jettySize=auto;html=1;exitX=0.5;exitY=0;exitDx=0;exitDy=0;entryX=0.5;entryY=1;entryDx=0;entryDy=0;curved=1;endArrow=none;startFill=0;" edge="1" parent="1" source="JDES-9rlce4q_SkyVY0k-96" target="JDES-9rlce4q_SkyVY0k-46">
          <mxGeometry relative="1" as="geometry" />
        </mxCell>
        <mxCell id="JDES-9rlce4q_SkyVY0k-96" value="" style="ellipse;whiteSpace=wrap;html=1;aspect=fixed;fillColor=#FFFFFF;" vertex="1" parent="1">
          <mxGeometry x="650" y="1178" width="14" height="14" as="geometry" />
        </mxCell>
        <mxCell id="JDES-9rlce4q_SkyVY0k-97" value="" style="ellipse;whiteSpace=wrap;html=1;aspect=fixed;fillColor=#FFFFFF;" vertex="1" parent="1">
          <mxGeometry x="593" y="1164" width="14" height="14" as="geometry" />
        </mxCell>
        <mxCell id="JDES-9rlce4q_SkyVY0k-98" value="" style="ellipse;whiteSpace=wrap;html=1;aspect=fixed;fillColor=#FFFFFF;" vertex="1" parent="1">
          <mxGeometry x="619" y="1178" width="14" height="14" as="geometry" />
        </mxCell>
        <mxCell id="JDES-9rlce4q_SkyVY0k-99" value="" style="ellipse;whiteSpace=wrap;html=1;aspect=fixed;fillColor=#FFFFFF;" vertex="1" parent="1">
          <mxGeometry x="577" y="1142" width="14" height="14" as="geometry" />
        </mxCell>
        <mxCell id="JDES-9rlce4q_SkyVY0k-100" value="First_Name" style="text;html=1;align=center;verticalAlign=middle;resizable=0;points=[];autosize=1;strokeColor=none;fillColor=none;" vertex="1" parent="1">
          <mxGeometry x="497" y="1134" width="90" height="30" as="geometry" />
        </mxCell>
        <mxCell id="JDES-9rlce4q_SkyVY0k-101" value="Last_Name" style="text;html=1;align=center;verticalAlign=middle;resizable=0;points=[];autosize=1;strokeColor=none;fillColor=none;" vertex="1" parent="1">
          <mxGeometry x="517" y="1156" width="80" height="30" as="geometry" />
        </mxCell>
        <mxCell id="JDES-9rlce4q_SkyVY0k-102" value="Gender" style="text;html=1;align=center;verticalAlign=middle;resizable=0;points=[];autosize=1;strokeColor=none;fillColor=none;" vertex="1" parent="1">
          <mxGeometry x="577" y="1186" width="60" height="30" as="geometry" />
        </mxCell>
        <mxCell id="JDES-9rlce4q_SkyVY0k-103" value="Address" style="text;html=1;align=center;verticalAlign=middle;resizable=0;points=[];autosize=1;strokeColor=none;fillColor=none;" vertex="1" parent="1">
          <mxGeometry x="628" y="1190" width="70" height="30" as="geometry" />
        </mxCell>
        <mxCell id="JDES-9rlce4q_SkyVY0k-104" value="Zip_Code" style="text;html=1;align=center;verticalAlign=middle;resizable=0;points=[];autosize=1;strokeColor=none;fillColor=none;" vertex="1" parent="1">
          <mxGeometry x="694" y="1178" width="80" height="30" as="geometry" />
        </mxCell>
        <mxCell id="JDES-9rlce4q_SkyVY0k-105" value="" style="ellipse;whiteSpace=wrap;html=1;aspect=fixed;fillColor=#FFFFFF;" vertex="1" parent="1">
          <mxGeometry x="713" y="1172" width="14" height="14" as="geometry" />
        </mxCell>
        <mxCell id="JDES-9rlce4q_SkyVY0k-106" value="Lon" style="text;html=1;align=center;verticalAlign=middle;resizable=0;points=[];autosize=1;strokeColor=none;fillColor=none;" vertex="1" parent="1">
          <mxGeometry x="788" y="1142" width="40" height="30" as="geometry" />
        </mxCell>
        <mxCell id="JDES-9rlce4q_SkyVY0k-107" value="Lat" style="text;html=1;align=center;verticalAlign=middle;resizable=0;points=[];autosize=1;strokeColor=none;fillColor=none;" vertex="1" parent="1">
          <mxGeometry x="779" y="1164" width="40" height="30" as="geometry" />
        </mxCell>
        <mxCell id="JDES-9rlce4q_SkyVY0k-108" value="" style="ellipse;whiteSpace=wrap;html=1;aspect=fixed;fillColor=#FFFFFF;" vertex="1" parent="1">
          <mxGeometry x="774" y="1172" width="14" height="14" as="geometry" />
        </mxCell>
        <mxCell id="JDES-9rlce4q_SkyVY0k-109" value="" style="ellipse;whiteSpace=wrap;html=1;aspect=fixed;fillColor=#FFFFFF;" vertex="1" parent="1">
          <mxGeometry x="779" y="1150" width="14" height="14" as="geometry" />
        </mxCell>
        <mxCell id="JDES-9rlce4q_SkyVY0k-110" style="edgeStyle=orthogonalEdgeStyle;rounded=0;orthogonalLoop=1;jettySize=auto;html=1;exitX=1;exitY=0.5;exitDx=0;exitDy=0;entryX=0;entryY=0.5;entryDx=0;entryDy=0;endArrow=none;startFill=0;curved=1;" edge="1" parent="1" source="JDES-9rlce4q_SkyVY0k-46" target="JDES-9rlce4q_SkyVY0k-109">
          <mxGeometry relative="1" as="geometry" />
        </mxCell>
        <mxCell id="JDES-9rlce4q_SkyVY0k-111" style="edgeStyle=orthogonalEdgeStyle;rounded=0;orthogonalLoop=1;jettySize=auto;html=1;exitX=0;exitY=0;exitDx=0;exitDy=0;entryX=0.981;entryY=0.726;entryDx=0;entryDy=0;entryPerimeter=0;endArrow=none;startFill=0;curved=1;" edge="1" parent="1" source="JDES-9rlce4q_SkyVY0k-108" target="JDES-9rlce4q_SkyVY0k-46">
          <mxGeometry relative="1" as="geometry" />
        </mxCell>
        <mxCell id="JDES-9rlce4q_SkyVY0k-112" value="" style="ellipse;whiteSpace=wrap;html=1;aspect=fixed;fillColor=#FFFFFF;" vertex="1" parent="1">
          <mxGeometry x="779" y="1126" width="14" height="14" as="geometry" />
        </mxCell>
        <mxCell id="JDES-9rlce4q_SkyVY0k-113" value="Utilization" style="text;html=1;align=center;verticalAlign=middle;resizable=0;points=[];autosize=1;strokeColor=none;fillColor=none;" vertex="1" parent="1">
          <mxGeometry x="783" y="1118" width="80" height="30" as="geometry" />
        </mxCell>
        <mxCell id="JDES-9rlce4q_SkyVY0k-114" style="edgeStyle=orthogonalEdgeStyle;rounded=0;orthogonalLoop=1;jettySize=auto;html=1;exitX=0.924;exitY=0.747;exitDx=0;exitDy=0;entryX=0.5;entryY=0;entryDx=0;entryDy=0;curved=1;exitPerimeter=0;" edge="1" parent="1" source="JDES-9rlce4q_SkyVY0k-130" target="JDES-9rlce4q_SkyVY0k-61">
          <mxGeometry relative="1" as="geometry" />
        </mxCell>
        <mxCell id="JDES-9rlce4q_SkyVY0k-115" style="edgeStyle=orthogonalEdgeStyle;rounded=0;orthogonalLoop=1;jettySize=auto;html=1;exitX=0.355;exitY=0.017;exitDx=0;exitDy=0;entryX=0.5;entryY=1;entryDx=0;entryDy=0;curved=1;endArrow=none;startFill=0;exitPerimeter=0;" edge="1" parent="1" source="JDES-9rlce4q_SkyVY0k-130" target="JDES-9rlce4q_SkyVY0k-135">
          <mxGeometry relative="1" as="geometry" />
        </mxCell>
        <mxCell id="JDES-9rlce4q_SkyVY0k-116" style="edgeStyle=orthogonalEdgeStyle;rounded=0;orthogonalLoop=1;jettySize=auto;html=1;exitX=0.5;exitY=0;exitDx=0;exitDy=0;entryX=0.5;entryY=1;entryDx=0;entryDy=0;curved=1;endArrow=none;startFill=0;" edge="1" parent="1" source="JDES-9rlce4q_SkyVY0k-130" target="JDES-9rlce4q_SkyVY0k-133">
          <mxGeometry relative="1" as="geometry" />
        </mxCell>
        <mxCell id="JDES-9rlce4q_SkyVY0k-117" style="edgeStyle=orthogonalEdgeStyle;rounded=0;orthogonalLoop=1;jettySize=auto;html=1;exitX=0.673;exitY=0.055;exitDx=0;exitDy=0;entryX=0.5;entryY=1;entryDx=0;entryDy=0;curved=1;exitPerimeter=0;endArrow=none;startFill=0;" edge="1" parent="1" source="JDES-9rlce4q_SkyVY0k-130" target="JDES-9rlce4q_SkyVY0k-134">
          <mxGeometry relative="1" as="geometry">
            <mxPoint x="993" y="422" as="targetPoint" />
          </mxGeometry>
        </mxCell>
        <mxCell id="JDES-9rlce4q_SkyVY0k-118" style="edgeStyle=orthogonalEdgeStyle;rounded=0;orthogonalLoop=1;jettySize=auto;html=1;exitX=0.651;exitY=0.036;exitDx=0;exitDy=0;entryX=0.5;entryY=1;entryDx=0;entryDy=0;curved=1;exitPerimeter=0;endArrow=none;startFill=0;" edge="1" parent="1" source="JDES-9rlce4q_SkyVY0k-130" target="JDES-9rlce4q_SkyVY0k-132">
          <mxGeometry relative="1" as="geometry">
            <mxPoint x="1073" y="372" as="targetPoint" />
            <Array as="points">
              <mxPoint x="983" y="632" />
              <mxPoint x="983" y="472" />
              <mxPoint x="1073" y="472" />
              <mxPoint x="1073" y="312" />
            </Array>
          </mxGeometry>
        </mxCell>
        <mxCell id="JDES-9rlce4q_SkyVY0k-119" style="edgeStyle=orthogonalEdgeStyle;rounded=0;orthogonalLoop=1;jettySize=auto;html=1;exitX=0.978;exitY=0.364;exitDx=0;exitDy=0;entryX=0.5;entryY=1;entryDx=0;entryDy=0;exitPerimeter=0;curved=1;endArrow=none;startFill=0;" edge="1" parent="1" source="JDES-9rlce4q_SkyVY0k-130" target="JDES-9rlce4q_SkyVY0k-158">
          <mxGeometry relative="1" as="geometry">
            <mxPoint x="1173.655737704918" y="638.9508196721312" as="targetPoint" />
            <Array as="points">
              <mxPoint x="1170" y="637" />
            </Array>
          </mxGeometry>
        </mxCell>
        <mxCell id="JDES-9rlce4q_SkyVY0k-120" style="edgeStyle=orthogonalEdgeStyle;rounded=0;orthogonalLoop=1;jettySize=auto;html=1;exitX=1;exitY=0.5;exitDx=0;exitDy=0;entryX=0;entryY=0.5;entryDx=0;entryDy=0;curved=1;endArrow=none;startFill=0;" edge="1" parent="1" source="JDES-9rlce4q_SkyVY0k-130" target="JDES-9rlce4q_SkyVY0k-159">
          <mxGeometry relative="1" as="geometry">
            <Array as="points">
              <mxPoint x="1153" y="639" />
              <mxPoint x="1153" y="579" />
            </Array>
          </mxGeometry>
        </mxCell>
        <mxCell id="JDES-9rlce4q_SkyVY0k-121" style="edgeStyle=orthogonalEdgeStyle;rounded=0;orthogonalLoop=1;jettySize=auto;html=1;exitX=1;exitY=0.5;exitDx=0;exitDy=0;entryX=0;entryY=0.5;entryDx=0;entryDy=0;curved=1;endArrow=none;startFill=0;" edge="1" parent="1" source="JDES-9rlce4q_SkyVY0k-130" target="JDES-9rlce4q_SkyVY0k-160">
          <mxGeometry relative="1" as="geometry">
            <Array as="points">
              <mxPoint x="1133" y="639" />
              <mxPoint x="1133" y="625" />
            </Array>
          </mxGeometry>
        </mxCell>
        <mxCell id="JDES-9rlce4q_SkyVY0k-122" style="edgeStyle=orthogonalEdgeStyle;rounded=0;orthogonalLoop=1;jettySize=auto;html=1;exitX=0.976;exitY=0.669;exitDx=0;exitDy=0;entryX=0;entryY=0.5;entryDx=0;entryDy=0;curved=1;exitPerimeter=0;endArrow=none;startFill=0;" edge="1" parent="1" source="JDES-9rlce4q_SkyVY0k-130" target="JDES-9rlce4q_SkyVY0k-161">
          <mxGeometry relative="1" as="geometry" />
        </mxCell>
        <mxCell id="JDES-9rlce4q_SkyVY0k-123" style="edgeStyle=orthogonalEdgeStyle;rounded=0;orthogonalLoop=1;jettySize=auto;html=1;exitX=1.013;exitY=0.249;exitDx=0;exitDy=0;entryX=0.5;entryY=0;entryDx=0;entryDy=0;curved=1;endArrow=none;startFill=0;exitPerimeter=0;" edge="1" parent="1" source="JDES-9rlce4q_SkyVY0k-131" target="JDES-9rlce4q_SkyVY0k-169">
          <mxGeometry relative="1" as="geometry">
            <Array as="points">
              <mxPoint x="930" y="646" />
              <mxPoint x="930" y="679" />
              <mxPoint x="903" y="679" />
            </Array>
          </mxGeometry>
        </mxCell>
        <mxCell id="JDES-9rlce4q_SkyVY0k-124" style="edgeStyle=orthogonalEdgeStyle;rounded=0;orthogonalLoop=1;jettySize=auto;html=1;exitX=0;exitY=1;exitDx=0;exitDy=0;entryX=0.5;entryY=0;entryDx=0;entryDy=0;curved=1;endArrow=none;startFill=0;" edge="1" parent="1" source="JDES-9rlce4q_SkyVY0k-130" target="JDES-9rlce4q_SkyVY0k-168">
          <mxGeometry relative="1" as="geometry">
            <Array as="points">
              <mxPoint x="925" y="662" />
              <mxPoint x="883" y="662" />
            </Array>
          </mxGeometry>
        </mxCell>
        <mxCell id="JDES-9rlce4q_SkyVY0k-125" style="edgeStyle=orthogonalEdgeStyle;rounded=0;orthogonalLoop=1;jettySize=auto;html=1;exitX=0.7;exitY=0.961;exitDx=0;exitDy=0;entryX=0.5;entryY=0;entryDx=0;entryDy=0;exitPerimeter=0;curved=1;endArrow=none;startFill=0;" edge="1" parent="1" source="JDES-9rlce4q_SkyVY0k-130" target="JDES-9rlce4q_SkyVY0k-171">
          <mxGeometry relative="1" as="geometry">
            <Array as="points">
              <mxPoint x="933" y="679" />
              <mxPoint x="940" y="679" />
            </Array>
          </mxGeometry>
        </mxCell>
        <mxCell id="JDES-9rlce4q_SkyVY0k-126" style="edgeStyle=orthogonalEdgeStyle;rounded=0;orthogonalLoop=1;jettySize=auto;html=1;exitX=0.797;exitY=0.928;exitDx=0;exitDy=0;entryX=0.5;entryY=0;entryDx=0;entryDy=0;curved=1;endArrow=none;startFill=0;exitPerimeter=0;" edge="1" parent="1">
          <mxGeometry relative="1" as="geometry">
            <mxPoint x="932.998" y="644.992" as="sourcePoint" />
            <mxPoint x="962.84" y="755.9999999999999" as="targetPoint" />
          </mxGeometry>
        </mxCell>
        <mxCell id="JDES-9rlce4q_SkyVY0k-127" style="edgeStyle=orthogonalEdgeStyle;rounded=0;orthogonalLoop=1;jettySize=auto;html=1;exitX=1;exitY=1;exitDx=0;exitDy=0;entryX=0.5;entryY=0;entryDx=0;entryDy=0;curved=1;endArrow=none;startFill=0;" edge="1" parent="1" source="JDES-9rlce4q_SkyVY0k-130" target="JDES-9rlce4q_SkyVY0k-173">
          <mxGeometry relative="1" as="geometry" />
        </mxCell>
        <mxCell id="JDES-9rlce4q_SkyVY0k-128" style="edgeStyle=orthogonalEdgeStyle;rounded=0;orthogonalLoop=1;jettySize=auto;html=1;exitX=1;exitY=0.5;exitDx=0;exitDy=0;entryX=0;entryY=0.5;entryDx=0;entryDy=0;curved=1;endArrow=none;startFill=0;" edge="1" parent="1" source="JDES-9rlce4q_SkyVY0k-130" target="JDES-9rlce4q_SkyVY0k-177">
          <mxGeometry relative="1" as="geometry" />
        </mxCell>
        <mxCell id="JDES-9rlce4q_SkyVY0k-129" style="edgeStyle=orthogonalEdgeStyle;rounded=0;orthogonalLoop=1;jettySize=auto;html=1;exitX=1;exitY=0.5;exitDx=0;exitDy=0;entryX=0;entryY=0.5;entryDx=0;entryDy=0;curved=1;endArrow=none;startFill=0;" edge="1" parent="1" source="JDES-9rlce4q_SkyVY0k-130" target="JDES-9rlce4q_SkyVY0k-180">
          <mxGeometry relative="1" as="geometry">
            <mxPoint x="1073" y="742" as="targetPoint" />
          </mxGeometry>
        </mxCell>
        <mxCell id="JDES-9rlce4q_SkyVY0k-130" value="" style="ellipse;whiteSpace=wrap;html=1;aspect=fixed;fillColor=#FFFFFF;" vertex="1" parent="1">
          <mxGeometry x="923" y="632" width="14" height="14" as="geometry" />
        </mxCell>
        <mxCell id="JDES-9rlce4q_SkyVY0k-131" value="Id_Patient" style="text;html=1;align=center;verticalAlign=middle;resizable=0;points=[];autosize=1;strokeColor=none;fillColor=none;" vertex="1" parent="1">
          <mxGeometry x="847" y="638" width="80" height="30" as="geometry" />
        </mxCell>
        <mxCell id="JDES-9rlce4q_SkyVY0k-132" value="" style="ellipse;whiteSpace=wrap;html=1;aspect=fixed;fillColor=#FFFFFF;" vertex="1" parent="1">
          <mxGeometry x="1056" y="298" width="14" height="14" as="geometry" />
        </mxCell>
        <mxCell id="JDES-9rlce4q_SkyVY0k-133" value="" style="ellipse;whiteSpace=wrap;html=1;aspect=fixed;fillColor=#FFFFFF;" vertex="1" parent="1">
          <mxGeometry x="933" y="402" width="14" height="14" as="geometry" />
        </mxCell>
        <mxCell id="JDES-9rlce4q_SkyVY0k-134" value="" style="ellipse;whiteSpace=wrap;html=1;aspect=fixed;fillColor=#FFFFFF;" vertex="1" parent="1">
          <mxGeometry x="989" y="402" width="14" height="14" as="geometry" />
        </mxCell>
        <mxCell id="JDES-9rlce4q_SkyVY0k-135" value="" style="ellipse;whiteSpace=wrap;html=1;aspect=fixed;fillColor=#FFFFFF;" vertex="1" parent="1">
          <mxGeometry x="893" y="402" width="14" height="14" as="geometry" />
        </mxCell>
        <mxCell id="JDES-9rlce4q_SkyVY0k-136" value="Last_Name" style="text;html=1;align=center;verticalAlign=middle;resizable=0;points=[];autosize=1;strokeColor=none;fillColor=none;" vertex="1" parent="1">
          <mxGeometry x="837" y="372" width="80" height="30" as="geometry" />
        </mxCell>
        <mxCell id="JDES-9rlce4q_SkyVY0k-137" value="Gender" style="text;html=1;align=center;verticalAlign=middle;resizable=0;points=[];autosize=1;strokeColor=none;fillColor=none;" vertex="1" parent="1">
          <mxGeometry x="987" y="372" width="60" height="30" as="geometry" />
        </mxCell>
        <mxCell id="JDES-9rlce4q_SkyVY0k-138" value="First_Name" style="text;html=1;align=center;verticalAlign=middle;resizable=0;points=[];autosize=1;strokeColor=none;fillColor=none;" vertex="1" parent="1">
          <mxGeometry x="907" y="372" width="90" height="30" as="geometry" />
        </mxCell>
        <mxCell id="JDES-9rlce4q_SkyVY0k-139" value="" style="ellipse;whiteSpace=wrap;html=1;aspect=fixed;fillColor=#FFFFFF;" vertex="1" parent="1">
          <mxGeometry x="1150" y="298" width="14" height="14" as="geometry" />
        </mxCell>
        <mxCell id="JDES-9rlce4q_SkyVY0k-140" value="" style="ellipse;whiteSpace=wrap;html=1;aspect=fixed;fillColor=#FFFFFF;" vertex="1" parent="1">
          <mxGeometry x="1099" y="298" width="14" height="14" as="geometry" />
        </mxCell>
        <mxCell id="JDES-9rlce4q_SkyVY0k-141" value="" style="ellipse;whiteSpace=wrap;html=1;aspect=fixed;fillColor=#FFFFFF;" vertex="1" parent="1">
          <mxGeometry x="1193" y="298" width="14" height="14" as="geometry" />
        </mxCell>
        <mxCell id="JDES-9rlce4q_SkyVY0k-142" value="Birthdate" style="text;html=1;align=center;verticalAlign=middle;resizable=0;points=[];autosize=1;strokeColor=none;fillColor=none;" vertex="1" parent="1">
          <mxGeometry x="1003" y="272" width="70" height="30" as="geometry" />
        </mxCell>
        <mxCell id="JDES-9rlce4q_SkyVY0k-143" value="Deathdate" style="text;html=1;align=center;verticalAlign=middle;resizable=0;points=[];autosize=1;strokeColor=none;fillColor=none;" vertex="1" parent="1">
          <mxGeometry x="1066" y="272" width="80" height="30" as="geometry" />
        </mxCell>
        <mxCell id="JDES-9rlce4q_SkyVY0k-144" value="SSN" style="text;html=1;align=center;verticalAlign=middle;resizable=0;points=[];autosize=1;strokeColor=none;fillColor=none;" vertex="1" parent="1">
          <mxGeometry x="1133" y="272" width="50" height="30" as="geometry" />
        </mxCell>
        <mxCell id="JDES-9rlce4q_SkyVY0k-145" value="Drivers" style="text;html=1;align=center;verticalAlign=middle;resizable=0;points=[];autosize=1;strokeColor=none;fillColor=none;" vertex="1" parent="1">
          <mxGeometry x="1173" y="270" width="60" height="30" as="geometry" />
        </mxCell>
        <mxCell id="JDES-9rlce4q_SkyVY0k-146" style="edgeStyle=orthogonalEdgeStyle;rounded=0;orthogonalLoop=1;jettySize=auto;html=1;exitX=1;exitY=0;exitDx=0;exitDy=0;entryX=0.5;entryY=1;entryDx=0;entryDy=0;curved=1;endArrow=none;startFill=0;" edge="1" parent="1" source="JDES-9rlce4q_SkyVY0k-130" target="JDES-9rlce4q_SkyVY0k-140">
          <mxGeometry relative="1" as="geometry">
            <mxPoint x="1073" y="322" as="targetPoint" />
            <mxPoint x="944" y="643" as="sourcePoint" />
            <Array as="points">
              <mxPoint x="935" y="632" />
              <mxPoint x="993" y="632" />
              <mxPoint x="993" y="482" />
              <mxPoint x="1103" y="482" />
              <mxPoint x="1103" y="312" />
            </Array>
          </mxGeometry>
        </mxCell>
        <mxCell id="JDES-9rlce4q_SkyVY0k-147" style="edgeStyle=orthogonalEdgeStyle;rounded=0;orthogonalLoop=1;jettySize=auto;html=1;exitX=1;exitY=0;exitDx=0;exitDy=0;entryX=0.5;entryY=1;entryDx=0;entryDy=0;curved=1;endArrow=none;startFill=0;" edge="1" parent="1" source="JDES-9rlce4q_SkyVY0k-130" target="JDES-9rlce4q_SkyVY0k-139">
          <mxGeometry relative="1" as="geometry">
            <mxPoint x="1176" y="329" as="targetPoint" />
            <mxPoint x="1047" y="650" as="sourcePoint" />
            <Array as="points">
              <mxPoint x="1096" y="634" />
              <mxPoint x="1096" y="489" />
              <mxPoint x="1153" y="489" />
              <mxPoint x="1153" y="312" />
            </Array>
          </mxGeometry>
        </mxCell>
        <mxCell id="JDES-9rlce4q_SkyVY0k-148" style="edgeStyle=orthogonalEdgeStyle;rounded=0;orthogonalLoop=1;jettySize=auto;html=1;exitX=0.947;exitY=0.277;exitDx=0;exitDy=0;entryX=0.5;entryY=1;entryDx=0;entryDy=0;curved=1;endArrow=none;startFill=0;exitPerimeter=0;" edge="1" parent="1" source="JDES-9rlce4q_SkyVY0k-130" target="JDES-9rlce4q_SkyVY0k-141">
          <mxGeometry relative="1" as="geometry">
            <mxPoint x="1167" y="322" as="targetPoint" />
            <mxPoint x="945" y="644" as="sourcePoint" />
            <Array as="points">
              <mxPoint x="936" y="632" />
              <mxPoint x="1103" y="632" />
              <mxPoint x="1103" y="499" />
              <mxPoint x="1163" y="499" />
              <mxPoint x="1163" y="322" />
              <mxPoint x="1200" y="322" />
            </Array>
          </mxGeometry>
        </mxCell>
        <mxCell id="JDES-9rlce4q_SkyVY0k-149" style="edgeStyle=orthogonalEdgeStyle;rounded=0;orthogonalLoop=1;jettySize=auto;html=1;exitX=0.5;exitY=1;exitDx=0;exitDy=0;entryX=0.234;entryY=0.075;entryDx=0;entryDy=0;endArrow=none;startFill=0;curved=1;entryPerimeter=0;" edge="1" parent="1" source="JDES-9rlce4q_SkyVY0k-150" target="JDES-9rlce4q_SkyVY0k-130">
          <mxGeometry relative="1" as="geometry">
            <Array as="points">
              <mxPoint x="862" y="534" />
              <mxPoint x="903" y="534" />
              <mxPoint x="903" y="622" />
              <mxPoint x="926" y="622" />
            </Array>
          </mxGeometry>
        </mxCell>
        <mxCell id="JDES-9rlce4q_SkyVY0k-150" value="" style="ellipse;whiteSpace=wrap;html=1;aspect=fixed;fillColor=#FFFFFF;" vertex="1" parent="1">
          <mxGeometry x="855" y="422" width="14" height="14" as="geometry" />
        </mxCell>
        <mxCell id="JDES-9rlce4q_SkyVY0k-151" style="edgeStyle=orthogonalEdgeStyle;rounded=0;orthogonalLoop=1;jettySize=auto;html=1;exitX=1;exitY=1;exitDx=0;exitDy=0;entryX=0;entryY=0;entryDx=0;entryDy=0;curved=1;endArrow=none;startFill=0;" edge="1" parent="1" source="JDES-9rlce4q_SkyVY0k-152" target="JDES-9rlce4q_SkyVY0k-130">
          <mxGeometry relative="1" as="geometry">
            <Array as="points">
              <mxPoint x="835" y="484" />
              <mxPoint x="863" y="484" />
              <mxPoint x="863" y="622" />
              <mxPoint x="925" y="622" />
            </Array>
          </mxGeometry>
        </mxCell>
        <mxCell id="JDES-9rlce4q_SkyVY0k-152" value="" style="ellipse;whiteSpace=wrap;html=1;aspect=fixed;fillColor=#FFFFFF;" vertex="1" parent="1">
          <mxGeometry x="823" y="444" width="14" height="14" as="geometry" />
        </mxCell>
        <mxCell id="JDES-9rlce4q_SkyVY0k-153" value="Passport" style="text;html=1;align=center;verticalAlign=middle;resizable=0;points=[];autosize=1;strokeColor=none;fillColor=none;" vertex="1" parent="1">
          <mxGeometry x="793" y="414" width="70" height="30" as="geometry" />
        </mxCell>
        <mxCell id="JDES-9rlce4q_SkyVY0k-154" value="Prefix" style="text;html=1;align=center;verticalAlign=middle;resizable=0;points=[];autosize=1;strokeColor=none;fillColor=none;" vertex="1" parent="1">
          <mxGeometry x="780" y="436" width="50" height="30" as="geometry" />
        </mxCell>
        <mxCell id="JDES-9rlce4q_SkyVY0k-155" style="edgeStyle=orthogonalEdgeStyle;rounded=0;orthogonalLoop=1;jettySize=auto;html=1;exitX=1;exitY=1;exitDx=0;exitDy=0;entryX=0;entryY=0;entryDx=0;entryDy=0;curved=1;endArrow=none;startFill=0;" edge="1" parent="1" source="JDES-9rlce4q_SkyVY0k-156" target="JDES-9rlce4q_SkyVY0k-130">
          <mxGeometry relative="1" as="geometry">
            <mxPoint x="923" y="632" as="targetPoint" />
            <Array as="points">
              <mxPoint x="843" y="494" />
              <mxPoint x="843" y="634" />
            </Array>
          </mxGeometry>
        </mxCell>
        <mxCell id="JDES-9rlce4q_SkyVY0k-156" value="" style="ellipse;whiteSpace=wrap;html=1;aspect=fixed;fillColor=#FFFFFF;" vertex="1" parent="1">
          <mxGeometry x="816" y="482" width="14" height="14" as="geometry" />
        </mxCell>
        <mxCell id="JDES-9rlce4q_SkyVY0k-157" value="Suffix" style="text;html=1;align=center;verticalAlign=middle;resizable=0;points=[];autosize=1;strokeColor=none;fillColor=none;" vertex="1" parent="1">
          <mxGeometry x="774" y="466" width="50" height="30" as="geometry" />
        </mxCell>
        <mxCell id="JDES-9rlce4q_SkyVY0k-158" value="" style="ellipse;whiteSpace=wrap;html=1;aspect=fixed;fillColor=#FFFFFF;" vertex="1" parent="1">
          <mxGeometry x="1163" y="532" width="14" height="14" as="geometry" />
        </mxCell>
        <mxCell id="JDES-9rlce4q_SkyVY0k-159" value="" style="ellipse;whiteSpace=wrap;html=1;aspect=fixed;fillColor=#FFFFFF;" vertex="1" parent="1">
          <mxGeometry x="1193" y="572" width="14" height="14" as="geometry" />
        </mxCell>
        <mxCell id="JDES-9rlce4q_SkyVY0k-160" value="" style="ellipse;whiteSpace=wrap;html=1;aspect=fixed;fillColor=#FFFFFF;" vertex="1" parent="1">
          <mxGeometry x="1193" y="618" width="14" height="14" as="geometry" />
        </mxCell>
        <mxCell id="JDES-9rlce4q_SkyVY0k-161" value="" style="ellipse;whiteSpace=wrap;html=1;aspect=fixed;fillColor=#FFFFFF;" vertex="1" parent="1">
          <mxGeometry x="1155" y="646" width="14" height="14" as="geometry" />
        </mxCell>
        <mxCell id="JDES-9rlce4q_SkyVY0k-162" value="Maiden" style="text;html=1;align=center;verticalAlign=middle;resizable=0;points=[];autosize=1;strokeColor=none;fillColor=none;" vertex="1" parent="1">
          <mxGeometry x="1153" y="506" width="60" height="30" as="geometry" />
        </mxCell>
        <mxCell id="JDES-9rlce4q_SkyVY0k-163" value="Marital" style="text;html=1;align=center;verticalAlign=middle;resizable=0;points=[];autosize=1;strokeColor=none;fillColor=none;" vertex="1" parent="1">
          <mxGeometry x="1197" y="556" width="60" height="30" as="geometry" />
        </mxCell>
        <mxCell id="JDES-9rlce4q_SkyVY0k-164" value="Birthplace" style="text;html=1;align=center;verticalAlign=middle;resizable=0;points=[];autosize=1;strokeColor=none;fillColor=none;" vertex="1" parent="1">
          <mxGeometry x="1163" y="593" width="80" height="30" as="geometry" />
        </mxCell>
        <mxCell id="JDES-9rlce4q_SkyVY0k-165" value="Address" style="text;html=1;align=center;verticalAlign=middle;resizable=0;points=[];autosize=1;strokeColor=none;fillColor=none;" vertex="1" parent="1">
          <mxGeometry x="1160" y="638" width="70" height="30" as="geometry" />
        </mxCell>
        <mxCell id="JDES-9rlce4q_SkyVY0k-166" value="Zip_Code" style="text;html=1;align=center;verticalAlign=middle;resizable=0;points=[];autosize=1;strokeColor=none;fillColor=none;" vertex="1" parent="1">
          <mxGeometry x="824" y="722" width="80" height="30" as="geometry" />
        </mxCell>
        <mxCell id="JDES-9rlce4q_SkyVY0k-167" value="Lat" style="text;html=1;align=center;verticalAlign=middle;resizable=0;points=[];autosize=1;strokeColor=none;fillColor=none;" vertex="1" parent="1">
          <mxGeometry x="884" y="722" width="40" height="30" as="geometry" />
        </mxCell>
        <mxCell id="JDES-9rlce4q_SkyVY0k-168" value="" style="ellipse;whiteSpace=wrap;html=1;aspect=fixed;fillColor=#FFFFFF;" vertex="1" parent="1">
          <mxGeometry x="855" y="712" width="14" height="14" as="geometry" />
        </mxCell>
        <mxCell id="JDES-9rlce4q_SkyVY0k-169" value="" style="ellipse;whiteSpace=wrap;html=1;aspect=fixed;fillColor=#FFFFFF;" vertex="1" parent="1">
          <mxGeometry x="896" y="712" width="14" height="14" as="geometry" />
        </mxCell>
        <mxCell id="JDES-9rlce4q_SkyVY0k-170" value="Lon" style="text;html=1;align=center;verticalAlign=middle;resizable=0;points=[];autosize=1;strokeColor=none;fillColor=none;" vertex="1" parent="1">
          <mxGeometry x="917" y="722" width="40" height="30" as="geometry" />
        </mxCell>
        <mxCell id="JDES-9rlce4q_SkyVY0k-171" value="" style="ellipse;whiteSpace=wrap;html=1;aspect=fixed;fillColor=#FFFFFF;" vertex="1" parent="1">
          <mxGeometry x="933" y="712" width="14" height="14" as="geometry" />
        </mxCell>
        <mxCell id="JDES-9rlce4q_SkyVY0k-172" value="" style="ellipse;whiteSpace=wrap;html=1;aspect=fixed;fillColor=#FFFFFF;" vertex="1" parent="1">
          <mxGeometry x="957" y="756" width="14" height="14" as="geometry" />
        </mxCell>
        <mxCell id="JDES-9rlce4q_SkyVY0k-173" value="" style="ellipse;whiteSpace=wrap;html=1;aspect=fixed;fillColor=#FFFFFF;" vertex="1" parent="1">
          <mxGeometry x="989" y="778" width="14" height="14" as="geometry" />
        </mxCell>
        <mxCell id="JDES-9rlce4q_SkyVY0k-174" value="Healthcare_expenses" style="text;html=1;align=center;verticalAlign=middle;resizable=0;points=[];autosize=1;strokeColor=none;fillColor=none;" vertex="1" parent="1">
          <mxGeometry x="828" y="748" width="140" height="30" as="geometry" />
        </mxCell>
        <mxCell id="JDES-9rlce4q_SkyVY0k-175" value="Healthcare_coverage" style="text;html=1;align=center;verticalAlign=middle;resizable=0;points=[];autosize=1;strokeColor=none;fillColor=none;" vertex="1" parent="1">
          <mxGeometry x="857" y="770" width="140" height="30" as="geometry" />
        </mxCell>
        <mxCell id="JDES-9rlce4q_SkyVY0k-176" style="edgeStyle=orthogonalEdgeStyle;rounded=0;orthogonalLoop=1;jettySize=auto;html=1;exitX=1;exitY=0.5;exitDx=0;exitDy=0;entryX=0;entryY=0.5;entryDx=0;entryDy=0;endArrow=none;startFill=0;" edge="1" parent="1" source="JDES-9rlce4q_SkyVY0k-177" target="JDES-9rlce4q_SkyVY0k-178">
          <mxGeometry relative="1" as="geometry" />
        </mxCell>
        <mxCell id="JDES-9rlce4q_SkyVY0k-177" value="" style="ellipse;whiteSpace=wrap;html=1;aspect=fixed;fillColor=#FFFFFF;" vertex="1" parent="1">
          <mxGeometry x="1173" y="692" width="14" height="14" as="geometry" />
        </mxCell>
        <mxCell id="JDES-9rlce4q_SkyVY0k-178" value="" style="ellipse;whiteSpace=wrap;html=1;aspect=fixed;fillColor=#FFFFFF;" vertex="1" parent="1">
          <mxGeometry x="1243" y="692" width="14" height="14" as="geometry" />
        </mxCell>
        <mxCell id="JDES-9rlce4q_SkyVY0k-179" style="edgeStyle=orthogonalEdgeStyle;rounded=0;orthogonalLoop=1;jettySize=auto;html=1;exitX=1;exitY=0.5;exitDx=0;exitDy=0;entryX=0;entryY=0.5;entryDx=0;entryDy=0;endArrow=none;startFill=0;" edge="1" parent="1" source="JDES-9rlce4q_SkyVY0k-180" target="JDES-9rlce4q_SkyVY0k-181">
          <mxGeometry relative="1" as="geometry" />
        </mxCell>
        <mxCell id="JDES-9rlce4q_SkyVY0k-180" value="" style="ellipse;whiteSpace=wrap;html=1;aspect=fixed;fillColor=#FFFFFF;" vertex="1" parent="1">
          <mxGeometry x="1173" y="742" width="14" height="14" as="geometry" />
        </mxCell>
        <mxCell id="JDES-9rlce4q_SkyVY0k-181" value="" style="ellipse;whiteSpace=wrap;html=1;aspect=fixed;fillColor=#FFFFFF;" vertex="1" parent="1">
          <mxGeometry x="1243" y="742" width="14" height="14" as="geometry" />
        </mxCell>
        <mxCell id="JDES-9rlce4q_SkyVY0k-182" value="Id_Race" style="text;html=1;align=center;verticalAlign=middle;resizable=0;points=[];autosize=1;strokeColor=none;fillColor=none;" vertex="1" parent="1">
          <mxGeometry x="1150" y="668" width="70" height="30" as="geometry" />
        </mxCell>
        <mxCell id="JDES-9rlce4q_SkyVY0k-183" value="Name" style="text;html=1;align=center;verticalAlign=middle;resizable=0;points=[];autosize=1;strokeColor=none;fillColor=none;" vertex="1" parent="1">
          <mxGeometry x="1225" y="668" width="60" height="30" as="geometry" />
        </mxCell>
        <mxCell id="JDES-9rlce4q_SkyVY0k-184" value="Id_Ethnicity" style="text;html=1;align=center;verticalAlign=middle;resizable=0;points=[];autosize=1;strokeColor=none;fillColor=none;" vertex="1" parent="1">
          <mxGeometry x="1138" y="710" width="90" height="30" as="geometry" />
        </mxCell>
        <mxCell id="JDES-9rlce4q_SkyVY0k-185" value="Name" style="text;html=1;align=center;verticalAlign=middle;resizable=0;points=[];autosize=1;strokeColor=none;fillColor=none;" vertex="1" parent="1">
          <mxGeometry x="1225" y="710" width="60" height="30" as="geometry" />
        </mxCell>
        <mxCell id="JDES-9rlce4q_SkyVY0k-187" value="" style="ellipse;whiteSpace=wrap;html=1;aspect=fixed;fillColor=#FFFFFF;" vertex="1" parent="1">
          <mxGeometry x="545" y="877" width="14" height="14" as="geometry" />
        </mxCell>
        <mxCell id="JDES-9rlce4q_SkyVY0k-190" value="Severity" style="text;html=1;align=center;verticalAlign=middle;resizable=0;points=[];autosize=1;strokeColor=none;fillColor=none;" vertex="1" parent="1">
          <mxGeometry x="537" y="888" width="70" height="30" as="geometry" />
        </mxCell>
        <mxCell id="JDES-9rlce4q_SkyVY0k-191" value="" style="ellipse;whiteSpace=wrap;html=1;aspect=fixed;fillColor=#FFFFFF;" vertex="1" parent="1">
          <mxGeometry x="400" y="962" width="14" height="14" as="geometry" />
        </mxCell>
        <mxCell id="JDES-9rlce4q_SkyVY0k-192" style="edgeStyle=orthogonalEdgeStyle;rounded=0;orthogonalLoop=1;jettySize=auto;html=1;entryX=0;entryY=0.5;entryDx=0;entryDy=0;endArrow=none;startFill=0;" edge="1" parent="1" source="JDES-9rlce4q_SkyVY0k-193" target="JDES-9rlce4q_SkyVY0k-191">
          <mxGeometry relative="1" as="geometry" />
        </mxCell>
        <mxCell id="JDES-9rlce4q_SkyVY0k-193" value="" style="ellipse;whiteSpace=wrap;html=1;aspect=fixed;fillColor=#FFFFFF;" vertex="1" parent="1">
          <mxGeometry x="330" y="962" width="14" height="14" as="geometry" />
        </mxCell>
        <mxCell id="JDES-9rlce4q_SkyVY0k-204" style="edgeStyle=orthogonalEdgeStyle;rounded=0;orthogonalLoop=1;jettySize=auto;html=1;exitX=1;exitY=0.5;exitDx=0;exitDy=0;entryX=0;entryY=1;entryDx=0;entryDy=0;curved=1;endArrow=none;startFill=0;" edge="1" parent="1" source="JDES-9rlce4q_SkyVY0k-194" target="JDES-9rlce4q_SkyVY0k-18">
          <mxGeometry relative="1" as="geometry" />
        </mxCell>
        <mxCell id="JDES-9rlce4q_SkyVY0k-194" value="" style="ellipse;whiteSpace=wrap;html=1;aspect=fixed;fillColor=#FFFFFF;" vertex="1" parent="1">
          <mxGeometry x="400" y="1022" width="14" height="14" as="geometry" />
        </mxCell>
        <mxCell id="JDES-9rlce4q_SkyVY0k-195" style="edgeStyle=orthogonalEdgeStyle;rounded=0;orthogonalLoop=1;jettySize=auto;html=1;entryX=0;entryY=0.5;entryDx=0;entryDy=0;endArrow=none;startFill=0;" edge="1" parent="1" source="JDES-9rlce4q_SkyVY0k-196" target="JDES-9rlce4q_SkyVY0k-194">
          <mxGeometry relative="1" as="geometry" />
        </mxCell>
        <mxCell id="JDES-9rlce4q_SkyVY0k-196" value="" style="ellipse;whiteSpace=wrap;html=1;aspect=fixed;fillColor=#FFFFFF;" vertex="1" parent="1">
          <mxGeometry x="330" y="1022" width="14" height="14" as="geometry" />
        </mxCell>
        <mxCell id="JDES-9rlce4q_SkyVY0k-198" value="" style="ellipse;whiteSpace=wrap;html=1;aspect=fixed;fillColor=#FFFFFF;" vertex="1" parent="1">
          <mxGeometry x="483" y="1044" width="14" height="14" as="geometry" />
        </mxCell>
        <mxCell id="JDES-9rlce4q_SkyVY0k-202" value="System" style="text;html=1;align=center;verticalAlign=middle;resizable=0;points=[];autosize=1;strokeColor=none;fillColor=none;" vertex="1" parent="1">
          <mxGeometry x="460" y="1052" width="60" height="30" as="geometry" />
        </mxCell>
        <mxCell id="JDES-9rlce4q_SkyVY0k-205" value="Id_Category" style="text;html=1;align=center;verticalAlign=middle;resizable=0;points=[];autosize=1;strokeColor=none;fillColor=none;" vertex="1" parent="1">
          <mxGeometry x="365" y="928" width="90" height="30" as="geometry" />
        </mxCell>
        <mxCell id="JDES-9rlce4q_SkyVY0k-206" value="Description" style="text;html=1;align=center;verticalAlign=middle;resizable=0;points=[];autosize=1;strokeColor=none;fillColor=none;" vertex="1" parent="1">
          <mxGeometry x="280" y="928" width="80" height="30" as="geometry" />
        </mxCell>
        <mxCell id="JDES-9rlce4q_SkyVY0k-207" value="Description" style="text;html=1;align=center;verticalAlign=middle;resizable=0;points=[];autosize=1;strokeColor=none;fillColor=none;" vertex="1" parent="1">
          <mxGeometry x="280" y="996" width="80" height="30" as="geometry" />
        </mxCell>
        <mxCell id="JDES-9rlce4q_SkyVY0k-208" value="&lt;div style=&quot;text-align: center;&quot;&gt;&lt;span style=&quot;text-wrap-mode: nowrap;&quot;&gt;Id_Type&lt;/span&gt;&lt;/div&gt;" style="text;whiteSpace=wrap;html=1;" vertex="1" parent="1">
          <mxGeometry x="388" y="996" width="100" height="40" as="geometry" />
        </mxCell>
      </root>
    </mxGraphModel>
  </diagram>
</mxfile>
